# xmcd CD database file
#
# Track frame offsets:
#	150
#	13529
#	41295
#	62395
#	83747
#	120091
#	143953
#	168043
#	192599
#	210695
#	219267
#	242357
#	261111
#
# Disc length: 3594 seconds
#
# Revision: 0
# Processed by: cddbd v1.5.2PL0 Copyright (c) Steve Scherf et al.
# Submitted via: CDex 1.51
#
DISCID=9e0e080d
DTITLE=Barney McAll - 'Vivid'
DYEAR=2005
DGENRE=Jazz
TTITLE0=Ali Gordum Taksim
TTITLE1=Ali Gordum 
TTITLE2=Painless
TTITLE3=Fongee Fongee
TTITLE4=Chinese Cello
TTITLE5=Allankar
TTITLE6=25 Min
TTITLE7=Terenaam
TTITLE8=Sarangi
TTITLE9=Inverted Plan
TTITLE10=Balatabla
TTITLE11=Gigantic
TTITLE12=Jex
EXTD=YEAR: 2005
EXTT0=
EXTT1=
EXTT2=
EXTT3=
EXTT4=
EXTT5=
EXTT6=
EXTT7=
EXTT8=
EXTT9=
EXTT10=
EXTT11=
EXTT12=
PLAYORDER=
